<svg xmlns="http://www.w3.org/2000/svg" fill="currentColor" viewBox="0 0 448 512"><path d="M344.9 161.5c-5.6-13.9-16.3-24.6-30.2-30.2-20.8-8.2-70.4-6.4-93.5-6.4s-72.6-1.9-93.5 6.4c-13.9 5.6-24.6 16.3-30.2 30.2-8.2 20.8-6.4 70.4-6.4 93.5s-1.9 72.6 6.4 93.5c5.6 13.9 16.3 24.6 30.2 30.2 20.8 8.2 70.4 6.4 93.5 6.4s72.6 1.9 93.5-6.4c13.9-5.6 24.6-16.3 30.2-30.2 8.3-20.8 6.4-70.4 6.4-93.5s1.8-72.6-6.4-93.5zM221.2 336.3c-45 0-81.3-36.3-81.3-81.3s36.3-81.3 81.3-81.3 81.3 36.3 81.3 81.3-36.3 81.3-81.3 81.3zm84.6-147c-10.5 0-19-8.5-19-19s8.5-19 19-19 19 8.5 19 19c0 10.6-8.5 19-19 19z"/><ellipse cx="221.2" cy="255" rx="52.9" ry="52.9" transform="rotate(-45 221.1910775 254.9982557)"/><path d="M400 32H48C21.5 32 0 53.5 0 80v352c0 26.5 21.5 48 48 48h352c26.5 0 48-21.5 48-48V80c0-26.5-21.5-48-48-48zm-21.3 288.4c-1.3 25.4-7.1 47.9-25.6 66.5s-41.1 24.4-66.5 25.6c-26.2 1.5-104.7 1.5-130.9 0-25.4-1.3-47.8-7.1-66.5-25.6-18.6-18.5-24.4-41.1-25.6-66.5-1.5-26.2-1.5-104.7 0-130.9 1.3-25.4 7-47.9 25.6-66.5 18.6-18.5 41.1-24.3 66.5-25.6 26.2-1.5 104.7-1.5 130.9 0 25.4 1.3 47.9 7.1 66.5 25.6s24.4 41.1 25.6 66.5c1.5 26.3 1.5 104.7 0 130.9z"/></svg>